<svg width="194" height="228" viewBox="0 0 194 228" fill="none" xmlns="http://www.w3.org/2000/svg">
<line y1="226.5" x2="193.017" y2="226.5" stroke="black"/>
<line x1="0.0091095" y1="0.500015" x2="113.009" y2="0.500015" stroke="black"/>
<line x1="0.509109" y1="227.002" x2="0.509109" y2="0.999985" stroke="black"/>
<line x1="112.5" y1="55" x2="112.5" stroke="black"/>
<path d="M101.667 63.6673L112.627 52.7071L123.588 63.6673C129.641 69.7204 129.641 79.5345 123.588 85.5876C117.534 91.6407 107.72 91.6407 101.667 85.5876C95.6141 79.5345 95.6141 69.7204 101.667 63.6673Z" stroke="black"/>
<rect x="109" y="47" width="7" height="2" rx="1" fill="black"/>
<rect x="109" y="51" width="7" height="2" rx="1" fill="black"/>
<rect x="109" y="53" width="7" height="2" rx="1" fill="black"/>
<rect x="109" y="49" width="7" height="2" rx="1" fill="black"/>
<circle cx="112.5" cy="77.5" r="17.5" fill="#DCB900"/>
<path d="M107.906 80.1251C107.544 79.6418 106.858 79.5439 106.375 79.9063C105.892 80.2688 105.794 80.9543 106.156 81.4376C106.912 82.4447 109.097 84.0626 112.5 84.0626C115.904 84.0626 118.088 82.4447 118.844 81.4376C119.206 80.9543 119.108 80.2688 118.625 79.9063C118.142 79.5439 117.456 79.6418 117.094 80.1251C116.755 80.5762 115.222 81.8751 112.5 81.8751C109.779 81.8751 108.245 80.5762 107.906 80.1251Z" fill="black"/>
<path d="M109.219 73.125C109.219 74.3331 108.239 75.3125 107.031 75.3125C105.823 75.3125 104.844 74.3331 104.844 73.125C104.844 71.9169 105.823 70.9375 107.031 70.9375C108.239 70.9375 109.219 71.9169 109.219 73.125Z" fill="black"/>
<path d="M101.248 73.1452C101.248 70.3025 103.553 67.998 106.396 67.998C109.238 67.998 111.543 70.3025 111.543 73.1452C111.543 75.9879 109.238 78.2923 106.396 78.2923C103.553 78.2923 101.248 75.9879 101.248 73.1452ZM106.396 69.0918C104.157 69.0918 102.342 70.9066 102.342 73.1452C102.342 75.3838 104.157 77.1986 106.396 77.1986C108.634 77.1986 110.449 75.3838 110.449 73.1452C110.449 70.9066 108.634 69.0918 106.396 69.0918Z" fill="black"/>
<path d="M120.156 73.125C120.156 74.3331 119.177 75.3125 117.969 75.3125C116.761 75.3125 115.781 74.3331 115.781 73.125C115.781 71.9169 116.761 70.9375 117.969 70.9375C119.177 70.9375 120.156 71.9169 120.156 73.125Z" fill="black"/>
<path d="M113.401 73.1871C113.401 70.3213 115.724 67.998 118.59 67.998C121.456 67.998 123.779 70.3213 123.779 73.1871C123.779 76.053 121.456 78.3762 118.59 78.3762C115.724 78.3762 113.401 76.053 113.401 73.1871ZM118.59 69.0918C116.328 69.0918 114.495 70.9253 114.495 73.1871C114.495 75.4489 116.328 77.2825 118.59 77.2825C120.852 77.2825 122.685 75.4489 122.685 73.1871C122.685 70.9253 120.852 69.0918 118.59 69.0918Z" fill="black"/>
<path d="M100.21 65.9311C102.999 62.903 107.135 61.0938 112.499 61.0938C117.862 61.0938 121.999 62.903 124.788 65.9311C127.563 68.9445 128.904 73.0569 128.904 77.4988C128.904 81.9406 127.563 86.053 124.788 89.0664C121.999 92.0945 117.862 93.9038 112.499 93.9038C107.135 93.9038 102.999 92.0945 100.21 89.0664C97.435 86.053 96.0938 81.9406 96.0938 77.4988C96.0938 73.0569 97.435 68.9445 100.21 65.9311ZM101.819 67.413C99.4909 69.9412 98.2812 73.4844 98.2812 77.4988C98.2812 81.5131 99.4909 85.0563 101.819 87.5846C104.134 90.098 107.653 91.7163 112.499 91.7163C117.345 91.7163 120.864 90.098 123.178 87.5846C125.507 85.0563 126.716 81.5131 126.716 77.4988C126.716 73.4844 125.507 69.9412 123.178 67.413C120.864 64.8995 117.345 63.2812 112.499 63.2812C107.653 63.2812 104.134 64.8995 101.819 67.413Z" fill="black"/>
<line x1="112.5" y1="151" x2="112.5" y2="93" stroke="black"/>
<line x1="73.6464" y1="189.493" x2="112.493" y2="150.646" stroke="black"/>
</svg>
