<svg width="194" height="228" viewBox="0 0 194 228" fill="none" xmlns="http://www.w3.org/2000/svg">
<line y1="226.5" x2="193.017" y2="226.5" stroke="black"/>
<line x1="0.0091095" y1="0.500015" x2="113.009" y2="0.500015" stroke="black"/>
<line x1="0.509109" y1="227.002" x2="0.509109" y2="0.999985" stroke="black"/>
<line x1="112.5" y1="55" x2="112.5" stroke="black"/>
<path d="M101.667 63.6673L112.627 52.7071L123.588 63.6673C129.641 69.7204 129.641 79.5345 123.588 85.5876C117.534 91.6407 107.72 91.6407 101.667 85.5876C95.6141 79.5345 95.6141 69.7204 101.667 63.6673Z" stroke="black"/>
<rect x="109" y="47" width="7" height="2" rx="1" fill="black"/>
<rect x="109" y="51" width="7" height="2" rx="1" fill="black"/>
<rect x="109" y="53" width="7" height="2" rx="1" fill="black"/>
<rect x="109" y="49" width="7" height="2" rx="1" fill="black"/>
<circle cx="112.5" cy="77.5" r="17.5" fill="#0072DC"/>
<path d="M102.977 70.1641C103.404 69.737 104.096 69.737 104.523 70.1641L106.484 72.1251L108.445 70.1641C108.872 69.737 109.565 69.737 109.992 70.1641C110.419 70.5912 110.419 71.2838 109.992 71.7109L108.031 73.6719L109.992 75.6329C110.419 76.06 110.419 76.7525 109.992 77.1796C109.565 77.6068 108.872 77.6068 108.445 77.1796L106.484 75.2187L104.523 77.1796C104.096 77.6068 103.404 77.6068 102.977 77.1796C102.549 76.7525 102.549 76.06 102.977 75.6329L104.938 73.6719L102.977 71.7109C102.549 71.2838 102.549 70.5912 102.977 70.1641Z" fill="black"/>
<path d="M120.477 70.1641C120.904 69.737 121.596 69.737 122.023 70.1641C122.451 70.5912 122.451 71.2838 122.023 71.7109L120.062 73.6719L122.023 75.6329C122.451 76.06 122.451 76.7525 122.023 77.1796C121.596 77.6068 120.904 77.6068 120.477 77.1796L118.516 75.2187L116.555 77.1796C116.128 77.6068 115.435 77.6068 115.008 77.1796C114.581 76.7525 114.581 76.06 115.008 75.6329L116.969 73.6719L115.008 71.7109C114.581 71.2838 114.581 70.5912 115.008 70.1641C115.435 69.737 116.128 69.737 116.555 70.1641L118.516 72.1251L120.477 70.1641Z" fill="black"/>
<path d="M108.125 85.1562C108.125 82.74 110.084 80.7812 112.5 80.7812C114.916 80.7812 116.875 82.74 116.875 85.1562C116.875 87.5725 114.916 89.5312 112.5 89.5312C110.084 89.5312 108.125 87.5725 108.125 85.1562Z" fill="black"/>
<path d="M112.499 61.0938C107.135 61.0938 102.999 62.903 100.21 65.9311C97.435 68.9445 96.0938 73.0569 96.0938 77.4988C96.0938 81.9406 97.435 86.053 100.21 89.0664C102.999 92.0945 107.135 93.9038 112.499 93.9038C117.862 93.9038 121.999 92.0945 124.788 89.0664C127.563 86.053 128.904 81.9406 128.904 77.4988C128.904 73.0569 127.563 68.9445 124.788 65.9311C121.999 62.903 117.862 61.0938 112.499 61.0938ZM98.2812 77.4988C98.2812 73.4844 99.4909 69.9412 101.819 67.413C104.134 64.8995 107.653 63.2812 112.499 63.2812C117.345 63.2812 120.864 64.8995 123.178 67.413C125.507 69.9412 126.716 73.4844 126.716 77.4988C126.716 81.5131 125.507 85.0563 123.178 87.5846C120.864 90.098 117.345 91.7163 112.499 91.7163C107.653 91.7163 104.134 90.098 101.819 87.5846C99.4909 85.0563 98.2812 81.5131 98.2812 77.4988Z" fill="black"/>
<line x1="112.5" y1="151" x2="112.5" y2="93" stroke="black"/>
<line x1="73.6464" y1="189.493" x2="112.493" y2="150.646" stroke="black"/>
<line x1="112.354" y1="150.646" x2="151.201" y2="189.493" stroke="black"/>
<line x1="112.354" y1="103.646" x2="151.201" y2="142.493" stroke="black"/>
<line x1="73.6464" y1="142.493" x2="112.493" y2="103.646" stroke="black"/>
</svg>
